<?xml version="1.0" encoding="UTF-8"?>
<svg width="943px" height="37px" viewBox="0 0 943 37" version="1.1" xmlns="http://www.w3.org/2000/svg" xmlns:xlink="http://www.w3.org/1999/xlink">
    <!-- Generator: Sketch 53.2 (72643) - https://sketchapp.com -->
    <title>black</title>
    <desc>Created with Sketch.</desc>
    <defs>
        <rect id="path-1" x="0" y="0" width="59.8049536" height="59.7897698"></rect>
    </defs>
    <g id="Page-1" stroke="none" stroke-width="1" fill="none" fill-rule="evenodd" opacity="0.400000006">
        <g id="iPhoneX" transform="translate(-1703.000000, -517.000000)">
            <g id="black" transform="translate(1702.507740, 466.864962)">
                <g id="power_black" transform="translate(871.625387, 50.884910)" fill="#000000">
                    <path d="M8.90712074,2.54424552 C5.39335863,2.54424552 2.54489164,5.39198933 2.54489164,8.90485934 L2.54489164,24.1703325 C2.54489164,27.6832025 5.39335863,30.5309463 8.90712074,30.5309463 L54.7151703,30.5309463 C58.2289324,30.5309463 61.0773994,27.6832025 61.0773994,24.1703325 L61.0773994,8.90485934 C61.0773994,5.39198933 58.2289324,2.54424552 54.7151703,2.54424552 L8.90712074,2.54424552 Z M8.90712074,0 L54.7151703,0 C59.6344372,-9.03425252e-16 63.622291,3.98684132 63.622291,8.90485934 L63.622291,24.1703325 C63.622291,29.0883505 59.6344372,33.0751918 54.7151703,33.0751918 L8.90712074,33.0751918 C3.98785379,33.0751918 6.02436453e-16,29.0883505 0,24.1703325 L0,8.90485934 C1.65788138e-15,3.98684132 3.98785379,9.03425252e-16 8.90712074,0 Z" id="Rectangle-3" fill-rule="nonzero"></path>
                    <path d="M8.90597337,5.08849105 L54.7163177,5.08849105 C56.8239412,5.08849105 58.5325077,6.79705755 58.5325077,8.90468114 L58.5325077,24.1705107 C58.5325077,26.2781343 56.8239412,27.9867008 54.7163177,27.9867008 L8.90597337,27.9867008 C6.79834978,27.9867008 5.08978328,26.2781343 5.08978328,24.1705107 L5.08978328,8.90468114 C5.08978328,6.79705755 6.79834978,5.08849105 8.90597337,5.08849105 Z" id="Rectangle-3"></path>
                    <path d="M67.4396285,11.6094146 C69.6348866,12.1742915 71.2569659,14.1665633 71.2569659,16.5375959 C71.2569659,18.9086285 69.6348866,20.9009003 67.4396285,21.4657772 L67.4396285,11.6094146 Z" id="Combined-Shape"></path>
                </g>
                <g id="wifi_black" transform="translate(836.294680, 42.277752) rotate(-45.000000) translate(-836.294680, -42.277752) translate(806.392203, 12.382867)">
                    <mask id="mask-2" fill="white">
                        <use xlink:href="#path-1"></use>
                    </mask>
                    <g id="Mask"></g>
                    <g id="Group" mask="url(#mask-2)" fill="#000000">
                        <g transform="translate(-33.083591, 26.714578)" id="Oval-3">
                            <ellipse fill-rule="evenodd" cx="33.0835913" cy="33.0751918" rx="11.4520124" ry="11.4491049"></ellipse>
                            <path d="M33.0835913,58.5176471 C47.1386398,58.5176471 58.5325077,47.1266718 58.5325077,33.0751918 C58.5325077,19.0237118 47.1386398,7.63273657 33.0835913,7.63273657 C19.0285429,7.63273657 7.63467492,19.0237118 7.63467492,33.0751918 C7.63467492,47.1266718 19.0285429,58.5176471 33.0835913,58.5176471 Z M33.0835913,66.1503836 C14.8120284,66.1503836 0,51.3421159 0,33.0751918 C0,14.8082678 14.8120284,0 33.0835913,0 C51.3551543,0 66.1671827,14.8082678 66.1671827,33.0751918 C66.1671827,51.3421159 51.3551543,66.1503836 33.0835913,66.1503836 Z" fill-rule="nonzero"></path>
                            <path d="M33.0835913,48.340665 C41.5166204,48.340665 48.3529412,41.5060798 48.3529412,33.0751918 C48.3529412,24.6443038 41.5166204,17.8097187 33.0835913,17.8097187 C24.6505623,17.8097187 17.8142415,24.6443038 17.8142415,33.0751918 C17.8142415,41.5060798 24.6505623,48.340665 33.0835913,48.340665 Z M33.0835913,54.7012788 C21.1368002,54.7012788 11.4520124,45.0189498 11.4520124,33.0751918 C11.4520124,21.1314338 21.1368002,11.4491049 33.0835913,11.4491049 C45.0303825,11.4491049 54.7151703,21.1314338 54.7151703,33.0751918 C54.7151703,45.0189498 45.0303825,54.7012788 33.0835913,54.7012788 Z" fill-rule="nonzero"></path>
                        </g>
                    </g>
                </g>
                <g id="singal_black" transform="translate(746.925697, 52.157033)" fill="#000000">
                    <path d="M2.54489164,19.0818414 L7.63467492,19.0818414 C9.04017977,19.0818414 10.1795666,20.220939 10.1795666,21.626087 L10.1795666,29.2588235 C10.1795666,30.6639715 9.04017977,31.8030691 7.63467492,31.8030691 L2.54489164,31.8030691 C1.1393868,31.8030691 1.72124701e-16,30.6639715 0,29.2588235 L0,21.626087 C-1.72124701e-16,20.220939 1.1393868,19.0818414 2.54489164,19.0818414 Z M16.5417957,12.7212276 L21.6315789,12.7212276 C23.0370838,12.7212276 24.1764706,13.8603251 24.1764706,15.2654731 L24.1764706,29.2588235 C24.1764706,30.6639715 23.0370838,31.8030691 21.6315789,31.8030691 L16.5417957,31.8030691 C15.1362908,31.8030691 13.996904,30.6639715 13.996904,29.2588235 L13.996904,15.2654731 C13.996904,13.8603251 15.1362908,12.7212276 16.5417957,12.7212276 Z M30.5386997,6.36061381 L35.628483,6.36061381 C37.0339878,6.36061381 38.1733746,7.49971133 38.1733746,8.90485934 L38.1733746,29.2588235 C38.1733746,30.6639715 37.0339878,31.8030691 35.628483,31.8030691 L30.5386997,31.8030691 C29.1331948,31.8030691 27.993808,30.6639715 27.993808,29.2588235 L27.993808,8.90485934 C27.993808,7.49971133 29.1331948,6.36061381 30.5386997,6.36061381 Z M44.5356037,0 L49.625387,0 C51.0308918,-2.58121501e-16 52.1702786,1.13909752 52.1702786,2.54424552 L52.1702786,29.2588235 C52.1702786,30.6639715 51.0308918,31.8030691 49.625387,31.8030691 L44.5356037,31.8030691 C43.1300989,31.8030691 41.9907121,30.6639715 41.9907121,29.2588235 L41.9907121,2.54424552 C41.9907121,1.13909752 43.1300989,2.58121501e-16 44.5356037,0 Z" id="Combined-Shape"></path>
                </g>
                <g id="Time_black" transform="translate(0.000000, 36.891560)" fill="#000000">
                    <text id="9-41" font-family="PingFangTC-Semibold, PingFang TC" font-size="45.7942811" font-weight="500" fill-opacity="0.87">
                        <tspan x="0" y="49">9 41</tspan>
                    </text>
                    <ellipse id="Oval-2" cx="34.3560372" cy="24.1703325" rx="3.81733746" ry="3.81636829"></ellipse>
                    <ellipse id="Oval-2-Copy" cx="34.3560372" cy="39.4358056" rx="3.81733746" ry="3.81636829"></ellipse>
                </g>
            </g>
        </g>
    </g>
</svg>