<?xml version="1.0" encoding="UTF-8"?>
<svg width="1233px" height="2487px" viewBox="0 0 1233 2487" version="1.1" xmlns="http://www.w3.org/2000/svg" xmlns:xlink="http://www.w3.org/1999/xlink">
    <!-- Generator: Sketch 53.2 (72643) - https://sketchapp.com -->
    <title>Group 2</title>
    <desc>Created with Sketch.</desc>
    <defs>
        <path d="M777.867461,88.0053708 C823.053083,88.6414322 842.890218,48.5626263 843.418434,20.5828645 C843.418434,5.74161758 847.696401,0.864961637 864.420202,0.864961637 C881.144002,0.864961637 905.804067,0.864961637 961.163991,0.864961637 C1016.52391,0.864961637 1080.16563,26.3074169 1080.16563,124.26087 C1080.16563,222.214322 1080.16563,2134.21503 1080.16563,2213.08654 C1080.16563,2291.95806 1038.1621,2336.48235 944.60877,2336.48235 C851.05544,2336.48235 220.978175,2336.48235 125.527709,2336.48235 C30.0772434,2336.48235 0.165634675,2278.60077 0.165634675,2214.99463 C0.165634675,2151.38849 0.165634675,197.407736 0.165634675,117.264098 C0.165634675,37.1204604 57.4431833,0.228900256 110.902229,0.228900256 C164.361274,0.228900256 203.182724,0.228900256 218.456737,0.228900256 C233.73075,0.228900256 236.912836,9.13375959 236.912836,19.3107417 C236.912836,29.4877238 242.403099,86.9422322 305.645894,87.3693095 C359.104939,87.3693095 717.407827,88.0053708 777.867461,88.0053708 Z" id="path-1"></path>
        <filter x="-0.3%" y="-0.1%" width="100.6%" height="100.3%" filterUnits="objectBoundingBox" id="filter-3">
            <feOffset dx="0" dy="0" in="SourceAlpha" result="shadowOffsetOuter1"></feOffset>
            <feGaussianBlur stdDeviation="1" in="shadowOffsetOuter1" result="shadowBlurOuter1"></feGaussianBlur>
            <feColorMatrix values="0 0 0 0 0   0 0 0 0 0   0 0 0 0 0  0 0 0 0.04 0" type="matrix" in="shadowBlurOuter1"></feColorMatrix>
        </filter>
        <rect id="path-4" x="0" y="0" width="59.8049536" height="59.7897698"></rect>
    </defs>
    <g id="Page-1" stroke="none" stroke-width="1" fill="none" fill-rule="evenodd">
        <g id="iPhoneX" transform="translate(-1532.000000, -374.000000)">
            <g id="Group-2" transform="translate(1532.000000, 374.000000)">
                <path d="M224.586687,3.41060513e-13 C377.280186,3.41060513e-13 876.103867,4.85045721e-13 1004.60844,4.85045721e-13 C1133.113,4.85045721e-13 1233,51.2833227 1233,224.529566 C1233,499.308082 1233,2140.70863 1233,2233.21151 C1233,2325.71438 1228.54644,2486.36394 1016.04799,2486.36394 C803.549536,2486.36394 286.082549,2486.36394 193.410698,2486.36394 C100.738847,2486.36394 0,2430.49667 0,2272.01125 C4.81247554e-15,2113.52584 4.9253509e-15,386.725116 0,224.529566 C0,39.6268959 115.538853,3.41060513e-13 224.586687,3.41060513e-13 Z" id="body" fill="#FFFFFF"></path>
                <g id="drop-your-design-here" transform="translate(73.000000, 92.000000)">
                    <mask id="mask-2" fill="white">
                        <use xlink:href="#path-1"></use>
                    </mask>
                    <g id="screen">
                        <use fill="black" fill-opacity="1" filter="url(#filter-3)" xlink:href="#path-1"></use>
                        <use fill="#F7F8FA" fill-rule="evenodd" xlink:href="#path-1"></use>
                    </g>
                </g>
                <path d="M428.814241,2387.77442 L802.913313,2387.77442 C808.535332,2387.77442 813.092879,2392.33081 813.092879,2397.95141 C813.092879,2403.572 808.535332,2408.12839 802.913313,2408.12839 L428.814241,2408.12839 C423.192222,2408.12839 418.634675,2403.572 418.634675,2397.95141 C418.634675,2392.33081 423.192222,2387.77442 428.814241,2387.77442 Z" id="bottom" fill="#F0F3F5"></path>
                <g id="black" opacity="0.400000006" transform="translate(170.507740, 92.864962)">
                    <g id="power_black" transform="translate(871.625387, 50.884910)" fill="#000000">
                        <path d="M8.90712074,2.54424552 C5.39335863,2.54424552 2.54489164,5.39198933 2.54489164,8.90485934 L2.54489164,24.1703325 C2.54489164,27.6832025 5.39335863,30.5309463 8.90712074,30.5309463 L54.7151703,30.5309463 C58.2289324,30.5309463 61.0773994,27.6832025 61.0773994,24.1703325 L61.0773994,8.90485934 C61.0773994,5.39198933 58.2289324,2.54424552 54.7151703,2.54424552 L8.90712074,2.54424552 Z M8.90712074,0 L54.7151703,0 C59.6344372,-9.03425252e-16 63.622291,3.98684132 63.622291,8.90485934 L63.622291,24.1703325 C63.622291,29.0883505 59.6344372,33.0751918 54.7151703,33.0751918 L8.90712074,33.0751918 C3.98785379,33.0751918 6.02436453e-16,29.0883505 0,24.1703325 L0,8.90485934 C1.65788138e-15,3.98684132 3.98785379,9.03425252e-16 8.90712074,0 Z" id="Rectangle-3" fill-rule="nonzero"></path>
                        <path d="M8.90597337,5.08849105 L54.7163177,5.08849105 C56.8239412,5.08849105 58.5325077,6.79705755 58.5325077,8.90468114 L58.5325077,24.1705107 C58.5325077,26.2781343 56.8239412,27.9867008 54.7163177,27.9867008 L8.90597337,27.9867008 C6.79834978,27.9867008 5.08978328,26.2781343 5.08978328,24.1705107 L5.08978328,8.90468114 C5.08978328,6.79705755 6.79834978,5.08849105 8.90597337,5.08849105 Z" id="Rectangle-3"></path>
                        <path d="M67.4396285,11.6094146 C69.6348866,12.1742915 71.2569659,14.1665633 71.2569659,16.5375959 C71.2569659,18.9086285 69.6348866,20.9009003 67.4396285,21.4657772 L67.4396285,11.6094146 Z" id="Combined-Shape"></path>
                    </g>
                    <g id="wifi_black" transform="translate(836.294680, 42.277752) rotate(-45.000000) translate(-836.294680, -42.277752) translate(806.392203, 12.382867)">
                        <mask id="mask-5" fill="white">
                            <use xlink:href="#path-4"></use>
                        </mask>
                        <g id="Mask"></g>
                        <g id="Group" mask="url(#mask-5)" fill="#000000">
                            <g transform="translate(-33.083591, 26.714578)" id="Oval-3">
                                <ellipse fill-rule="evenodd" cx="33.0835913" cy="33.0751918" rx="11.4520124" ry="11.4491049"></ellipse>
                                <path d="M33.0835913,58.5176471 C47.1386398,58.5176471 58.5325077,47.1266718 58.5325077,33.0751918 C58.5325077,19.0237118 47.1386398,7.63273657 33.0835913,7.63273657 C19.0285429,7.63273657 7.63467492,19.0237118 7.63467492,33.0751918 C7.63467492,47.1266718 19.0285429,58.5176471 33.0835913,58.5176471 Z M33.0835913,66.1503836 C14.8120284,66.1503836 0,51.3421159 0,33.0751918 C0,14.8082678 14.8120284,0 33.0835913,0 C51.3551543,0 66.1671827,14.8082678 66.1671827,33.0751918 C66.1671827,51.3421159 51.3551543,66.1503836 33.0835913,66.1503836 Z" fill-rule="nonzero"></path>
                                <path d="M33.0835913,48.340665 C41.5166204,48.340665 48.3529412,41.5060798 48.3529412,33.0751918 C48.3529412,24.6443038 41.5166204,17.8097187 33.0835913,17.8097187 C24.6505623,17.8097187 17.8142415,24.6443038 17.8142415,33.0751918 C17.8142415,41.5060798 24.6505623,48.340665 33.0835913,48.340665 Z M33.0835913,54.7012788 C21.1368002,54.7012788 11.4520124,45.0189498 11.4520124,33.0751918 C11.4520124,21.1314338 21.1368002,11.4491049 33.0835913,11.4491049 C45.0303825,11.4491049 54.7151703,21.1314338 54.7151703,33.0751918 C54.7151703,45.0189498 45.0303825,54.7012788 33.0835913,54.7012788 Z" fill-rule="nonzero"></path>
                            </g>
                        </g>
                    </g>
                    <g id="singal_black" transform="translate(746.925697, 52.157033)" fill="#000000">
                        <path d="M2.54489164,19.0818414 L7.63467492,19.0818414 C9.04017977,19.0818414 10.1795666,20.220939 10.1795666,21.626087 L10.1795666,29.2588235 C10.1795666,30.6639715 9.04017977,31.8030691 7.63467492,31.8030691 L2.54489164,31.8030691 C1.1393868,31.8030691 1.72124701e-16,30.6639715 0,29.2588235 L0,21.626087 C-1.72124701e-16,20.220939 1.1393868,19.0818414 2.54489164,19.0818414 Z M16.5417957,12.7212276 L21.6315789,12.7212276 C23.0370838,12.7212276 24.1764706,13.8603251 24.1764706,15.2654731 L24.1764706,29.2588235 C24.1764706,30.6639715 23.0370838,31.8030691 21.6315789,31.8030691 L16.5417957,31.8030691 C15.1362908,31.8030691 13.996904,30.6639715 13.996904,29.2588235 L13.996904,15.2654731 C13.996904,13.8603251 15.1362908,12.7212276 16.5417957,12.7212276 Z M30.5386997,6.36061381 L35.628483,6.36061381 C37.0339878,6.36061381 38.1733746,7.49971133 38.1733746,8.90485934 L38.1733746,29.2588235 C38.1733746,30.6639715 37.0339878,31.8030691 35.628483,31.8030691 L30.5386997,31.8030691 C29.1331948,31.8030691 27.993808,30.6639715 27.993808,29.2588235 L27.993808,8.90485934 C27.993808,7.49971133 29.1331948,6.36061381 30.5386997,6.36061381 Z M44.5356037,0 L49.625387,0 C51.0308918,-2.58121501e-16 52.1702786,1.13909752 52.1702786,2.54424552 L52.1702786,29.2588235 C52.1702786,30.6639715 51.0308918,31.8030691 49.625387,31.8030691 L44.5356037,31.8030691 C43.1300989,31.8030691 41.9907121,30.6639715 41.9907121,29.2588235 L41.9907121,2.54424552 C41.9907121,1.13909752 43.1300989,2.58121501e-16 44.5356037,0 Z" id="Combined-Shape"></path>
                    </g>
                    <g id="Time_black" transform="translate(0.000000, 36.891560)" fill="#000000">
                        <text id="9-41" font-family="PingFangTC-Semibold, PingFang TC" font-size="45.7942811" font-weight="500" fill-opacity="0.87">
                            <tspan x="0" y="49">9 41</tspan>
                        </text>
                        <ellipse id="Oval-2" cx="34.3560372" cy="24.1703325" rx="3.81733746" ry="3.81636829"></ellipse>
                        <ellipse id="Oval-2-Copy" cx="34.3560372" cy="39.4358056" rx="3.81733746" ry="3.81636829"></ellipse>
                    </g>
                </g>
                <g id="Top" transform="translate(536.972136, 100.497698)" fill="#F0F3F5">
                    <path d="M10.8157895,7.63273657 L140.605263,7.63273657 C146.578659,7.63273657 151.421053,12.473901 151.421053,18.4457801 C151.421053,24.4176591 146.578659,29.2588235 140.605263,29.2588235 L10.8157895,29.2588235 C4.84239389,29.2588235 7.31529978e-16,24.4176591 0,18.4457801 C-7.31529978e-16,12.473901 4.84239389,7.63273657 10.8157895,7.63273657 Z" id="receiver"></path>
                    <ellipse id="camera" cx="208.681115" cy="17.8097187" rx="17.8142415" ry="17.8097187"></ellipse>
                </g>
            </g>
        </g>
    </g>
</svg>